<svg id="visual" viewBox="0 0 900 600" width="900" height="600" xmlns="http://www.w3.org/2000/svg" xmlns:xlink="http://www.w3.org/1999/xlink" version="1.1"><rect x="0" y="0" width="900" height="600" fill="#001220"></rect><path d="M0 391L12.5 376.7C25 362.3 50 333.7 75 320.5C100 307.3 125 309.7 150 319.2C175 328.7 200 345.3 225 353.5C250 361.7 275 361.3 300 349C325 336.7 350 312.3 375 315.8C400 319.3 425 350.7 450 352.3C475 354 500 326 525 312.7C550 299.3 575 300.7 600 313C625 325.3 650 348.7 675 358.3C700 368 725 364 750 356C775 348 800 336 825 340.2C850 344.3 875 364.7 887.5 374.8L900 385L900 601L887.5 601C875 601 850 601 825 601C800 601 775 601 750 601C725 601 700 601 675 601C650 601 625 601 600 601C575 601 550 601 525 601C500 601 475 601 450 601C425 601 400 601 375 601C350 601 325 601 300 601C275 601 250 601 225 601C200 601 175 601 150 601C125 601 100 601 75 601C50 601 25 601 12.5 601L0 601Z" fill="#715df2"></path><path d="M0 394L12.5 393.7C25 393.3 50 392.7 75 383.5C100 374.3 125 356.7 150 357.5C175 358.3 200 377.7 225 389.3C250 401 275 405 300 398.5C325 392 350 375 375 373.7C400 372.3 425 386.7 450 384.3C475 382 500 363 525 368.8C550 374.7 575 405.3 600 419C625 432.7 650 429.3 675 416C700 402.7 725 379.3 750 370.8C775 362.3 800 368.7 825 376.2C850 383.7 875 392.3 887.5 396.7L900 401L900 601L887.5 601C875 601 850 601 825 601C800 601 775 601 750 601C725 601 700 601 675 601C650 601 625 601 600 601C575 601 550 601 525 601C500 601 475 601 450 601C425 601 400 601 375 601C350 601 325 601 300 601C275 601 250 601 225 601C200 601 175 601 150 601C125 601 100 601 75 601C50 601 25 601 12.5 601L0 601Z" fill="#9b48c8"></path><path d="M0 426L12.5 423.7C25 421.3 50 416.7 75 412.3C100 408 125 404 150 414C175 424 200 448 225 447.5C250 447 275 422 300 421.5C325 421 350 445 375 450.2C400 455.3 425 441.7 450 437.3C475 433 500 438 525 444.3C550 450.7 575 458.3 600 456.2C625 454 650 442 675 434.7C700 427.3 725 424.7 750 430C775 435.3 800 448.7 825 446.3C850 444 875 426 887.5 417L900 408L900 601L887.5 601C875 601 850 601 825 601C800 601 775 601 750 601C725 601 700 601 675 601C650 601 625 601 600 601C575 601 550 601 525 601C500 601 475 601 450 601C425 601 400 601 375 601C350 601 325 601 300 601C275 601 250 601 225 601C200 601 175 601 150 601C125 601 100 601 75 601C50 601 25 601 12.5 601L0 601Z" fill="#a93aa0"></path><path d="M0 522L12.5 516.8C25 511.7 50 501.3 75 499.7C100 498 125 505 150 507.8C175 510.7 200 509.3 225 509.2C250 509 275 510 300 501.7C325 493.3 350 475.7 375 477.3C400 479 425 500 450 505.3C475 510.7 500 500.3 525 495.7C550 491 575 492 600 486.7C625 481.3 650 469.7 675 466.5C700 463.3 725 468.7 750 479.2C775 489.7 800 505.3 825 509C850 512.7 875 504.3 887.5 500.2L900 496L900 601L887.5 601C875 601 850 601 825 601C800 601 775 601 750 601C725 601 700 601 675 601C650 601 625 601 600 601C575 601 550 601 525 601C500 601 475 601 450 601C425 601 400 601 375 601C350 601 325 601 300 601C275 601 250 601 225 601C200 601 175 601 150 601C125 601 100 601 75 601C50 601 25 601 12.5 601L0 601Z" fill="#a8357d"></path><path d="M0 508L12.5 513.3C25 518.7 50 529.3 75 538.2C100 547 125 554 150 555.2C175 556.3 200 551.7 225 548C250 544.3 275 541.7 300 540.8C325 540 350 541 375 545.5C400 550 425 558 450 552.5C475 547 500 528 525 527.8C550 527.7 575 546.3 600 546.5C625 546.7 650 528.3 675 529.8C700 531.3 725 552.7 750 554.2C775 555.7 800 537.3 825 534.7C850 532 875 545 887.5 551.5L900 558L900 601L887.5 601C875 601 850 601 825 601C800 601 775 601 750 601C725 601 700 601 675 601C650 601 625 601 600 601C575 601 550 601 525 601C500 601 475 601 450 601C425 601 400 601 375 601C350 601 325 601 300 601C275 601 250 601 225 601C200 601 175 601 150 601C125 601 100 601 75 601C50 601 25 601 12.5 601L0 601Z" fill="#9d3761"></path></svg>